<svg width="32" height="32" viewBox="0 0 32 32" fill="none" xmlns="http://www.w3.org/2000/svg">
<path d="M0 16C0 7.16344 7.16344 0 16 0C24.8366 0 32 7.16344 32 16C32 24.8366 24.8366 32 16 32C7.16344 32 0 24.8366 0 16Z" fill="#6FDDC7"/>
<path d="M16 16C17.1046 16 18 15.1046 18 14C18 12.8954 17.1046 12 16 12C14.8954 12 14 12.8954 14 14C14 15.1046 14.8954 16 16 16Z" stroke="#000C52" stroke-miterlimit="10"/>
<path d="M15.9404 15.7651V24" stroke="#000C52" stroke-miterlimit="10"/>
<path d="M16 23H18" stroke="#000C52" stroke-miterlimit="10"/>
<path d="M15.9404 21H17.7377" stroke="#000C52" stroke-miterlimit="10"/>
<path d="M20.3947 23.9996C20.3947 18.9357 20.5742 18.6666 21.5331 16.681C21.967 15.7545 22.1744 14.6999 22.0846 13.5895C21.8434 10.6156 19.4226 8.22411 16.4457 8.01526C12.8791 7.7667 9.90814 10.5862 9.90814 14.0984L8.03733 17.7194C7.94467 17.9003 8.03144 18.1209 8.22117 18.1901L9.2713 18.5695C9.39779 18.6151 9.48162 18.7342 9.48162 18.8681V21.1139C9.48162 21.2419 9.58457 21.3449 9.71253 21.3449H12.3555C12.4835 21.3449 12.5864 21.4478 12.5864 21.5758V23.9996" stroke="#000C52" stroke-miterlimit="10"/>
</svg>
