<svg width="32" height="32" viewBox="0 0 32 32" fill="none" xmlns="http://www.w3.org/2000/svg">
<path d="M0 16C0 7.16344 7.16344 0 16 0C24.8366 0 32 7.16344 32 16C32 24.8366 24.8366 32 16 32C7.16344 32 0 24.8366 0 16Z" fill="#FF7101"/>
<path d="M23.9987 15.8753C23.932 11.5146 20.3766 8 16.0002 8C11.6238 8 8.06838 11.5146 8.0017 15.8753C8.00085 15.917 8 15.9586 8 16.0002C8 16.2669 8.01317 16.5307 8.03865 16.7906C8.40817 20.5567 11.3885 23.5562 15.1457 23.955C15.4264 23.9847 15.7114 24.0004 15.9998 24.0004C16.2882 24.0004 16.5732 23.9847 16.8539 23.955C20.6111 23.5562 23.5914 20.5567 23.9609 16.7906C23.9864 16.5307 24 16.2669 24 16.0002C24 15.9586 23.9996 15.917 23.9987 15.8753Z" stroke="#000C52" stroke-miterlimit="10"/>
<path d="M16.9998 15.9844C16.9915 15.4393 16.5471 15 16 15C15.453 15 15.0085 15.4393 15.0002 15.9844C15.0001 15.9896 15 15.9948 15 16C15 16.0333 15.0016 16.0663 15.0048 16.0988C15.051 16.5695 15.4236 16.9445 15.8932 16.9943C15.9283 16.998 15.9639 17 16 17C16.036 17 16.0716 16.998 16.1067 16.9943C16.5764 16.9445 16.9489 16.5695 16.9951 16.0988C16.9983 16.0663 17 16.0333 17 16C17 15.9948 16.9999 15.9896 16.9998 15.9844Z" fill="#000C52"/>
<path d="M23.9258 14.8041C21.5525 13.6517 19 13 16 13C13 13 10.448 13.6517 8.07472 14.8041M8 16.8387C11.8909 16.9689 15.0157 19.9161 15.1241 23.5713M16.8759 23.5713C16.9843 19.9166 20.1091 16.9689 24 16.8387" stroke="#000C52" stroke-miterlimit="10"/>
</svg>
