<svg width="32" height="32" viewBox="0 0 32 32" fill="none" xmlns="http://www.w3.org/2000/svg">
<path d="M0 16C0 7.16344 7.16344 0 16 0C24.8366 0 32 7.16344 32 16C32 24.8366 24.8366 32 16 32C7.16344 32 0 24.8366 0 16Z" fill="#C8F58B"/>
<path d="M20.5 12C21.3284 12 22 11.3284 22 10.5C22 9.67157 21.3284 9 20.5 9C19.6716 9 19 9.67157 19 10.5C19 11.3284 19.6716 12 20.5 12Z" stroke="black" stroke-miterlimit="10"/>
<path d="M14.9502 17C15.5025 17 15.9502 16.5523 15.9502 16C15.9502 15.4477 15.5025 15 14.9502 15C14.3979 15 13.9502 15.4477 13.9502 16C13.9502 16.5523 14.3979 17 14.9502 17Z" stroke="black" stroke-miterlimit="10"/>
<path d="M9.80052 13.6506C10.7949 13.6506 11.601 12.8445 11.601 11.8501C11.601 10.8557 10.7949 10.0496 9.80052 10.0496C8.80612 10.0496 8 10.8557 8 11.8501C8 12.8445 8.80612 13.6506 9.80052 13.6506Z" stroke="black" stroke-miterlimit="10"/>
<path d="M13.7507 24.601C14.7451 24.601 15.5512 23.7949 15.5512 22.8005C15.5512 21.8061 14.7451 21 13.7507 21C12.7563 21 11.9502 21.8061 11.9502 22.8005C11.9502 23.7949 12.7563 24.601 13.7507 24.601Z" stroke="black" stroke-miterlimit="10"/>
<path d="M22.1003 19.085C23.0947 19.085 23.9008 18.2789 23.9008 17.2845C23.9008 16.2901 23.0947 15.4839 22.1003 15.4839C21.1059 15.4839 20.2998 16.2901 20.2998 17.2845C20.2998 18.2789 21.1059 19.085 22.1003 19.085Z" stroke="black" stroke-miterlimit="10"/>
<path d="M10.9941 13.1967L13.9497 15.5" stroke="black" stroke-miterlimit="10"/>
<path d="M15.4502 15.5L19.4502 11.5" stroke="black" stroke-miterlimit="10"/>
<path d="M20.3365 16.9199L15.9502 16.5" stroke="black" stroke-miterlimit="10"/>
<path d="M13.9502 21L14.4502 17" stroke="black" stroke-miterlimit="10"/>
</svg>
