<?xml version="1.0" encoding="UTF-8"?> <!-- Generator: Adobe Illustrator 19.0.0, SVG Export Plug-In . SVG Version: 6.00 Build 0) --> <svg xmlns="http://www.w3.org/2000/svg" xmlns:xlink="http://www.w3.org/1999/xlink" version="1.1" id="Layer_1" x="0px" y="0px" viewBox="0 0 491 118.5" style="enable-background:new 0 0 491 118.5;" xml:space="preserve"> <style type="text/css"> .st0{fill:#32008F;} .st1{fill:#FF0A85;} </style> <g> <g> <path class="st0" d="M41.6,61.4c0-4.2,0.8-8.3,2.3-12.4c1.5-4.1,3.7-7.8,6.6-11c2.9-3.2,6.5-5.8,10.7-7.8c4.2-2,9-3,14.3-3 c6.3,0,11.8,1.4,16.4,4.2c4.6,2.8,8.1,6.4,10.3,10.9l-10.3,7.1c-0.9-1.9-2-3.6-3.3-4.9C87.3,43,86,42,84.5,41.2 c-1.5-0.8-3-1.3-4.6-1.7c-1.6-0.4-3.2-0.5-4.7-0.5c-3.4,0-6.3,0.7-8.8,2c-2.5,1.4-4.6,3.1-6.2,5.3c-1.6,2.2-2.9,4.6-3.7,7.4 c-0.8,2.7-1.3,5.5-1.3,8.2c0,3,0.5,6,1.5,8.8c1,2.8,2.3,5.3,4.1,7.4c1.8,2.1,3.9,3.8,6.4,5.1c2.5,1.3,5.2,1.9,8.2,1.9 c1.5,0,3.2-0.2,4.8-0.6c1.7-0.4,3.3-1,4.8-1.8c1.5-0.8,2.9-1.9,4.2-3.2c1.3-1.3,2.3-2.9,3.1-4.8l10.9,6.3 c-1.1,2.6-2.7,4.9-4.7,6.8c-2,2-4.3,3.6-6.9,5c-2.6,1.4-5.3,2.4-8.2,3.1c-2.9,0.7-5.8,1.1-8.5,1.1c-4.9,0-9.4-1-13.5-3.1 c-4.1-2.1-7.6-4.8-10.5-8.1c-2.9-3.3-5.2-7.1-6.9-11.3C42.4,70.2,41.6,65.8,41.6,61.4z"></path> <path class="st0" d="M125.6,97.3c-2.5,0-4.7-0.4-6.9-1.2c-2.1-0.8-4-1.9-5.5-3.4c-1.6-1.5-2.8-3.2-3.6-5.1 c-0.9-1.9-1.3-4.1-1.3-6.4c0-2.4,0.5-4.6,1.6-6.6c1.1-2,2.6-3.8,4.5-5.2c1.9-1.4,4.2-2.5,6.8-3.3c2.6-0.8,5.6-1.2,8.7-1.2 c2.3,0,4.5,0.2,6.6,0.6c2.2,0.4,4.1,0.9,5.8,1.6v-2.9c0-3.4-1-5.9-2.9-7.8c-1.9-1.8-4.7-2.7-8.5-2.7c-2.7,0-5.4,0.5-7.9,1.5 c-2.6,1-5.2,2.4-7.9,4.3l-4-8.2c6.5-4.3,13.6-6.5,21.1-6.5c7.3,0,13,1.8,17,5.4c4,3.6,6.1,8.8,6.1,15.5v15.8 c0,1.4,0.2,2.3,0.7,2.9c0.5,0.6,1.3,0.9,2.4,1v11c-2.2,0.5-4.1,0.7-5.7,0.7c-2.5,0-4.3-0.5-5.7-1.6c-1.3-1.1-2.1-2.5-2.5-4.4 l-0.3-2.8c-2.3,3-5,5.2-8.2,6.8C132.8,96.5,129.3,97.3,125.6,97.3z M129.3,87.8c2.2,0,4.3-0.4,6.2-1.2c2-0.8,3.5-1.8,4.6-3.1 c1.4-1.1,2.1-2.3,2.1-3.7V74c-1.6-0.6-3.2-1.1-5-1.4c-1.8-0.4-3.6-0.5-5.2-0.5c-3.4,0-6.1,0.8-8.2,2.3c-2.1,1.5-3.2,3.4-3.2,5.8 c0,2.2,0.8,4,2.5,5.5C124.8,87.1,126.9,87.8,129.3,87.8z"></path> <path class="st0" d="M214.6,96.3h-13V67.8c0-4.1-0.7-7-2.1-8.9c-1.4-1.9-3.4-2.8-5.9-2.8c-1.3,0-2.6,0.3-4,0.8 c-1.4,0.5-2.6,1.2-3.8,2.2c-1.2,0.9-2.3,2.1-3.2,3.3c-1,1.3-1.7,2.7-2.1,4.3v29.6h-13V45.6h11.7V55c1.9-3.2,4.6-5.7,8.1-7.6 c3.6-1.8,7.6-2.7,12-2.7c3.2,0,5.7,0.6,7.8,1.7c2,1.2,3.6,2.7,4.7,4.6c1.1,1.9,1.9,4,2.3,6.4c0.4,2.4,0.6,4.8,0.6,7.3V96.3z"></path> <path class="st1" d="M272.2,45.6c-0.5-0.5-1.3-1.1-2.5-1.8c-1.2-0.8-2.7-1.5-4.4-2.3c-1.7-0.7-3.6-1.4-5.6-1.9 c-2-0.5-4-0.8-6.1-0.8c-3.7,0-6.4,0.7-8.2,2c-1.8,1.4-2.7,3.3-2.7,5.7c0,1.4,0.3,2.6,1,3.5c0.7,0.9,1.7,1.8,3,2.5 c1.3,0.7,2.9,1.4,4.9,1.9c2,0.6,4.2,1.2,6.8,1.8c3.4,0.9,6.4,1.9,9.2,2.9c2.7,1,5.1,2.3,7,3.9c1.9,1.6,3.4,3.4,4.4,5.6 c1,2.2,1.6,4.8,1.6,8c0,3.7-0.7,6.8-2.1,9.4c-1.4,2.6-3.3,4.7-5.6,6.3c-2.4,1.6-5.1,2.8-8.1,3.5c-3.1,0.7-6.3,1.1-9.6,1.1 c-5.2,0-10.3-0.8-15.3-2.3c-5-1.6-9.6-3.7-13.6-6.6l5.9-11.5c0.6,0.6,1.6,1.3,3.1,2.3c1.5,0.9,3.3,1.9,5.4,2.8 c2.1,0.9,4.4,1.7,6.9,2.4c2.5,0.6,5.1,1,7.8,1c7.4,0,11-2.4,11-7.1c0-1.5-0.4-2.7-1.3-3.8c-0.8-1-2-1.9-3.6-2.7 c-1.6-0.8-3.4-1.5-5.6-2.1c-2.2-0.6-4.7-1.4-7.4-2.1c-3.3-0.9-6.2-1.9-8.6-3c-2.4-1.1-4.4-2.3-6.1-3.8c-1.6-1.5-2.8-3.1-3.6-5 c-0.8-1.9-1.2-4.2-1.2-6.8c0-3.5,0.6-6.6,1.9-9.3c1.3-2.7,3.1-5,5.4-6.8c2.3-1.8,5-3.2,8-4.1c3-0.9,6.3-1.4,9.8-1.4 c4.8,0,9.3,0.8,13.4,2.3c4.1,1.5,7.6,3.3,10.7,5.4L272.2,45.6z"></path> <path class="st1" d="M318.4,93.7c-1.7,0.8-3.9,1.6-6.4,2.3c-2.5,0.8-5.2,1.2-7.9,1.2c-1.8,0-3.5-0.2-5.1-0.7 c-1.6-0.5-3-1.2-4.2-2.2c-1.2-1-2.1-2.3-2.9-3.9c-0.7-1.6-1.1-3.5-1.1-5.8V55.5h-6.7v-10h6.7V29.1h13v16.5h10.7v10h-10.7v24.8 c0,1.8,0.5,3.1,1.4,3.8c0.9,0.7,2.1,1.1,3.4,1.1c1.4,0,2.7-0.2,4-0.7c1.3-0.5,2.3-0.8,3.1-1.2L318.4,93.7z"></path> <path class="st1" d="M339.5,97.3c-5.2,0-9.2-1.7-11.9-5c-2.7-3.4-4.1-8.3-4.1-14.9V45.6h13v29c0,7.8,2.8,11.7,8.4,11.7 c2.5,0,5-0.8,7.3-2.3c2.4-1.5,4.3-3.8,5.8-6.9V45.6h13v35.8c0,1.4,0.2,2.3,0.7,2.9c0.5,0.6,1.3,0.9,2.4,1v11 c-1.3,0.3-2.4,0.4-3.2,0.5c-0.9,0.1-1.7,0.1-2.4,0.1c-2.3,0-4.2-0.5-5.7-1.6c-1.5-1.1-2.3-2.5-2.6-4.4l-0.3-4.1 c-2.3,3.5-5.2,6.1-8.7,7.8C347.7,96.4,343.8,97.3,339.5,97.3z"></path> <path class="st1" d="M404.3,97.3c-3.5,0-6.7-0.7-9.7-2c-3-1.4-5.5-3.2-7.7-5.6c-2.1-2.4-3.8-5.2-5-8.4c-1.2-3.2-1.8-6.6-1.8-10.3 c0-3.7,0.6-7.1,1.7-10.3c1.1-3.2,2.7-5.9,4.7-8.3c2-2.4,4.4-4.3,7.2-5.6c2.8-1.4,5.8-2,9.1-2c3.7,0,7.1,0.9,10.1,2.7 c3,1.8,5.3,4.2,7,7.1V25.6h13v55.8c0,1.4,0.2,2.3,0.7,2.9s1.2,0.9,2.3,1v11c-2.3,0.5-4.1,0.7-5.5,0.7c-2.3,0-4.2-0.6-5.7-1.7 c-1.5-1.2-2.3-2.7-2.5-4.6l-0.3-3.2c-1.9,3.2-4.4,5.7-7.6,7.3C411.2,96.5,407.8,97.3,404.3,97.3z M407.7,86.2 c1.2,0,2.5-0.2,3.8-0.6c1.3-0.4,2.5-1,3.6-1.8c1.1-0.8,2.1-1.7,3-2.7c0.9-1,1.5-2.2,2-3.4V65.6c-0.5-1.4-1.2-2.7-2.2-3.9 c-0.9-1.2-2-2.2-3.2-3.1c-1.2-0.9-2.5-1.6-3.8-2.1c-1.3-0.5-2.6-0.8-3.9-0.8c-1.9,0-3.7,0.4-5.4,1.3c-1.6,0.8-3.1,2-4.2,3.4 c-1.2,1.5-2.1,3.1-2.7,5c-0.6,1.9-1,3.8-1,5.8c0,2.1,0.4,4.1,1.1,5.9c0.7,1.8,1.7,3.4,2.9,4.7c1.2,1.4,2.7,2.4,4.4,3.2 C403.8,85.9,405.6,86.2,407.7,86.2z"></path> <path class="st1" d="M445.8,106.2c1.1,0.3,2.2,0.6,3.2,0.7c1,0.2,1.9,0.2,2.6,0.2c0.8,0,1.6-0.2,2.3-0.5c0.7-0.3,1.4-0.9,1.9-1.7 c0.6-0.8,1.2-1.9,1.7-3.3c0.6-1.4,1.2-3.2,1.8-5.3l-20.1-50.8h13.4l13.8,39.5l12.2-39.5H491l-21.3,60.8c-1.2,3.6-3.3,6.5-6.3,8.7 c-3,2.3-6.7,3.4-11,3.4c-1,0-2.1-0.1-3.1-0.2c-1.1-0.2-2.2-0.4-3.3-0.8V106.2z"></path> </g> <path class="st0" d="M31.3,9.7c-0.9-0.6-1.6-1.3-2.4-2c0.3-0.5,0.2-1.4-0.5-1.7c-0.6-0.2-1.1-0.5-1.7-0.7c-0.5-0.6-0.9-1.2-1.4-1.8 c-0.5-0.7-1.1-1.6-2-1.9c-0.8-0.2-1.5,0.3-2.1,1.3c-2-1.6-4.3-2.8-7-2.9C10.1-0.1,7,5.2,5.6,8.3C2.5,15.5,8,24,15.8,24 c2,0,3.7-0.7,5-1.9c1.7,0,3.3-0.2,4.6-0.7c3.6-1.4,4.1-4.3,3.2-7.3c1.3-0.7,2.4-1.7,3-3C32,10.6,31.8,10,31.3,9.7z M17.5,19.1 c1.6-0.6,3.2-1.5,4.4-2.1c-0.5,1-1.1,1.9-1.8,2.7C19.2,19.6,18.3,19.4,17.5,19.1z M8.9,9.4c0,0,0.3,0,0.7-0.1 C9.5,9.5,9.5,9.7,9.4,9.9C9.2,9.8,9.1,9.6,8.9,9.4z M12.2,9c0.6-0.1,1.1-0.1,1.7-0.2c-0.7,0.8-1.4,1.6-2,2.5 c-0.2-0.1-0.4-0.2-0.6-0.3C11.4,10.4,11.8,9.7,12.2,9z M16.6,9.6c0.3-0.4,0.7-0.7,1-1c0.5,0,1-0.1,1.3-0.1 c-0.4,1.6-0.7,2.9-0.9,3.3c-0.1,0.4,0.1,1,0.5,1.2c0.5,0.3,1,0.5,1.6,0.8c-2-0.3-3.9-1-5.8-1.6C15,11.3,15.8,10.4,16.6,9.6z M23.7,10.9c-0.1,0.8-0.3,1.6-0.5,2.4c0,0,0,0,0,0c-0.9-0.8-2-1.3-3-1.8c0,0,1-2.6,1.8-4.8c0.7,0.8,1.3,1.6,1.8,2.4 C23.8,9.8,23.7,10.5,23.7,10.9z M16.8,6.3c-0.5,0-1.1,0-1.7,0c0.4-0.2,0.8-0.4,1.2-0.5c0.5-0.2,1.1-0.3,1.7-0.3 C17.6,5.7,17.2,6,16.8,6.3z M12.8,16.6c-0.2-0.2-0.3-0.4-0.5-0.6c0-0.3,0.1-0.7,0.4-1.2c0.1-0.2,0.2-0.4,0.4-0.7c2,0.6,4,1,5.3,1.4 c0.3,0.1,0.8,0.1,1.4,0.2c-0.1,0.1-0.3,0.1-0.4,0.2c-0.8,0.4-3.7,1.5-5.5,1.4C13.4,17.1,13,16.8,12.8,16.6z M25.6,11.9 c0.2,0.4,0.4,0.8,0.6,1.2c-0.3,0.1-0.6,0.3-0.9,0.4C25.4,13,25.5,12.5,25.6,11.9z M10.7,4.3c2.5-2.8,5.3-2.5,7.8-0.8 c-1.3,0-2.7,0.2-4,0.7c-1.4,0.5-2.5,1.4-3.4,2.5c-1,0.2-2,0.4-2.7,0.7C9.1,6.2,9.9,5.2,10.7,4.3z M14.8,21.9 c-3.7,0-6.5-3.7-7.7-6.8c-0.6-1.5-0.5-3.2,0-4.7c0.4,0.7,1.1,1.4,1.9,1.9c0,0.2,0,0.4,0,0.5c0,1.3,0.3,2.5,0.9,3.6 c0,1.3,0.6,2.4,2,3c0.4,0.2,0.9,0.3,1.3,0.4c1.2,0.8,2.5,1.3,3.9,1.7C16.4,21.8,15.7,21.9,14.8,21.9z M22.8,19.9 c0.8-1.2,1.4-2.6,1.8-4c0.7-0.3,1.5-0.6,2.2-0.9C27.6,18.3,25.5,19.7,22.8,19.9z M28,12.1c-0.5-1.3-1.2-2.5-1.9-3.6 c0-0.2,0-0.4,0-0.6c1.2,1.1,2.4,2.2,3.3,2.9C29,11.3,28.5,11.7,28,12.1z"></path> <path class="st0" d="M33.4,96c-5.1,2.5-12.5-0.6-18,0.5c-0.2,0-0.4,0.1-0.6,0.1c1.3-0.6,2.6-1,3.6-1.5c0.3-0.1,0.7-0.4,1.2-0.6 c0,0,0,0,0,0c1.3,0.3,2.6,0.4,4,0.4c1.5,0,2.9-0.1,4.3-0.4c0.8-0.2,1.6-0.4,2.3-0.7c1.3-0.5,0.7-2.5-0.6-2c-2.4,0.9-4.7,1.4-7,1.4 c0,0,0,0,0,0c4.2-1.8,9.5-4.7,7.8-7.7c-0.2-0.3-0.6-0.6-0.9-0.5c-1.2,0.1-2.4,0.3-3.5,0.4c0-2.2-0.5-4.4-1.8-6.3 c1.7-1.8,3.6-3.3,5.7-4.5c0.5-0.3,0.6-0.9,0.4-1.4c-1.2-2.8-3.3-5-5.7-7c0.5-1.7,0.9-3.4,1.3-5.1c0.9,1.8,1.4,3.5,1.1,6 c-0.2,1.3,1.9,1.7,2,0.3c0.6-4.1-0.5-6.8-2.6-9.3c0.8-4.9,0.8-9.7-1-14.1c0,0,0-0.1-0.1-0.1c1.1-0.8,2.2-1.6,3.3-2.5 c0.6-0.5,0.3-1.6-0.5-1.8c-7.1-1.2-12,0.7-15.8,5.3c0.6-1.3,1.4-2.8,2.1-4.2c2.7-1.8,5.2-4,7.1-6.7c0.6-0.9-0.6-2-1.4-1.4 c-3,2-5.7,4.4-7.8,7.2c-3.7,2.3-8,4-11.7,5.6c-1.2,0.6-0.2,2.4,1.1,1.8c2.8-1.2,5.6-2.5,8.4-3.9c-1.1,2.1-2,4.4-2.4,6.8 c-0.1,0.5,0.1,1,0.6,1.2c-0.2,0-0.3,0-0.5,0c-0.8,0-1.3,0.9-0.9,1.6c1.3,2.5,3.1,4.6,5.2,6.4C9.7,64.1,8.6,69,9.5,74 c0.1,0.4,0.6,0.8,1,0.8c3.1-0.3,5.4-1.8,7.1-3.8c-0.3,0.5-0.3,1.2-0.1,2.1c0.1,0.6,0.4,1.2,0.8,1.9c-2.1,2.1-5.3,5.9-6,6.6 c-0.3,0.4-0.6,0.7-0.8,1.1c-0.5-1.7-1-3.3-2-4.4c-0.5-0.5-1.6-0.3-1.8,0.5c-1.3,7.5,2.8,12.6,8.5,14.9c-3.3,1.4-7.4,3.2-8.4,6.2 c-0.3,0.9,0.8,1.6,1.6,1.2c8.3-4.8,17.3,0.6,25.1-3.2C35.7,97.2,34.6,95.4,33.4,96z M25.7,87.6c0.5-0.1,2-0.5,2.5-0.6 c-0.3,0-2,1.5-2.8,1.9C25.6,88.7,25.7,88,25.7,87.6z M19.9,69.6c-0.6-0.3-0.7-0.1-1.3,0.1c1-1.3,1.3-2.1,2-3.6 c0.2,0.2,0.5,0.4,0.7,0.5c-0.3,1.1-0.6,2.4-0.9,3.5C20.3,69.9,20.3,69.7,19.9,69.6z M15,58.4c0.4-0.8,0.9-1.6,1.4-2.4 c1.9,1.5,3.1,3.5,3,6.4c-1.6-1.1-3.2-2.2-4.7-3.3C14.8,58.8,14.9,58.6,15,58.4z M14.1,51.9c-0.7-0.5-1.2-0.9-1.5-1.4 c2.7-0.9,5.2-2,7.7-3.3c-1.4,1.6-2.8,3.3-4.1,5.1C15.5,52.2,14.8,52,14.1,51.9z M18.5,55.1c1.9,0.7,3.6,1.7,5,2.9 c-0.4,2-0.9,4-1.4,6.2c-0.2-0.1-0.3-0.2-0.5-0.4C22.5,60.3,20.9,57.4,18.5,55.1z M22.2,90.4c-0.5,0.4-1.1,0.7-1.5,1 c-0.2-0.5-0.4-1.5-0.5-3.1c0.9-0.1,1.9-0.2,2.8-0.4C22.8,88.8,22.5,89.7,22.2,90.4z M23.4,85.7c-1.1,0.1-2.2,0.3-3.3,0.4 c0-0.8,0.1-1.7,0.2-2.5c0.7-1,1.5-2,2.3-2.9c0.1,0.2,0.3,0.4,0.4,0.6C23.7,82.2,23.7,83.9,23.4,85.7z M26.2,70.6 c3.1,3,0.1,3.6-2.2,5.6c-0.4,0.4-0.8,0.7-1.1,1.1c-0.3-0.4-0.7-0.9-1-1.3c0.6-2.5,1.3-5,2-7.5C24.7,69.3,25.4,69.9,26.2,70.6z M23.9,55.7c-1.6-1.2-3.5-2.1-5.5-2.8c1.2-1.7,2.5-3.3,3.8-4.9C26.1,43.5,24.6,52.2,23.9,55.7z M15.4,44.5 c2.1-2.3,11.6-3.9,5.5-0.1c-2.7,1.7-5.6,2.9-8.6,4C12.7,47.4,13.9,46.2,15.4,44.5z M13.2,53.9c0.5,0.2,0.9,0.5,1.4,0.8 c-0.6,1-1.2,2-1.7,3C9.6,55,7.6,53.2,13.2,53.9z M11.5,67.6c0.3-2.3,1.2-4.5,2.2-6.6c1.2,1,2.5,1.9,3.8,2.8c0.5,0.4,1,0.7,1.5,1.1 C17.7,70.9,11.3,74.4,11.5,67.6z M15.2,81.5c1.3-1.5,2.6-2.9,3.6-4.4c-0.4,2.2-0.8,4.4-0.9,6.5c-0.5,0.8-1.1,2-1.8,3.1 C13.9,87.9,11.3,86,15.2,81.5z M15.9,91.6c-0.2-0.1-0.4-0.2-0.6-0.4c0.6-0.7,1.2-1.6,1.7-2.5c0.3,0,0.6-0.1,0.8-0.1 c0.1,1.4,0.4,2.7,0.7,4c0,0-0.1,0-0.1,0.1C17.6,92.4,16.7,92,15.9,91.6z"></path> </g> </svg> 