<svg width="32" height="32" viewBox="0 0 32 32" fill="none" xmlns="http://www.w3.org/2000/svg">
<path d="M0 16C0 7.16344 7.16344 0 16 0C24.8366 0 32 7.16344 32 16C32 24.8366 24.8366 32 16 32C7.16344 32 0 24.8366 0 16Z" fill="#F9DC4D"/>
<path d="M16.0039 17.1923V7" stroke="#000C52" stroke-miterlimit="10"/>
<path d="M11.9131 11.0911L16.0041 7L20.0975 11.0911" stroke="#000C52" stroke-miterlimit="10"/>
<path d="M16.0035 19.9652C16.8069 19.9652 17.4582 19.3139 17.4582 18.5105C17.4582 17.7071 16.8069 17.0558 16.0035 17.0558C15.2001 17.0558 14.5488 17.7071 14.5488 18.5105C14.5488 19.3139 15.2001 19.9652 16.0035 19.9652Z" stroke="#000C52" stroke-miterlimit="10"/>
<path d="M12.0869 15.1844C11.2771 16.1048 10.7852 17.31 10.7852 18.6305C10.7852 21.514 13.1226 23.8514 16.0061 23.8514C18.8896 23.8514 21.227 21.514 21.227 18.6305C21.227 17.31 20.735 16.1025 19.9253 15.1844" stroke="#000C52" stroke-miterlimit="10"/>
</svg>
