<svg width="32" height="32" viewBox="0 0 32 32" fill="none" xmlns="http://www.w3.org/2000/svg">
<path d="M0 16C0 7.16344 7.16344 0 16 0C24.8366 0 32 7.16344 32 16C32 24.8366 24.8366 32 16 32C7.16344 32 0 24.8366 0 16Z" fill="#0086F5"/>
<path d="M24 17.0055V14.9945C24 14.8474 23.881 14.7273 23.7328 14.7273H22.4272C22.2487 13.8198 21.882 12.9814 21.3714 12.2502L22.2779 11.308C22.3796 11.2019 22.3763 11.0332 22.2703 10.9304L20.8208 9.53607C20.7148 9.43439 20.546 9.43763 20.4432 9.54364L19.5367 10.4858C18.8574 10.0488 18.0926 9.73403 17.2727 9.57285V8.26719C17.2727 8.12007 17.1537 8 17.0055 8H14.9945C14.8474 8 14.7273 8.11899 14.7273 8.26719V9.57285C13.9074 9.73403 13.1426 10.0499 12.4633 10.4858L11.5568 9.54364C11.4551 9.43763 11.2852 9.43439 11.1792 9.53607L9.7297 10.9304C9.62369 11.0321 9.62044 11.2019 9.72213 11.308L10.6286 12.2502C10.117 12.9814 9.75134 13.8198 9.57285 14.7273H8.26719C8.12007 14.7273 8 14.8463 8 14.9945V17.0055C8 17.1526 8.11899 17.2727 8.26719 17.2727H9.57285C9.75134 18.1802 10.118 19.0186 10.6286 19.7498L9.72213 20.692C9.62044 20.7981 9.62369 20.9668 9.7297 21.0696L11.1792 22.4639C11.2852 22.5656 11.454 22.5624 11.5568 22.4564L12.4633 21.5142C13.1426 21.9512 13.9074 22.266 14.7273 22.4272V23.7328C14.7273 23.8799 14.8463 24 14.9945 24H17.0055C17.1526 24 17.2727 23.881 17.2727 23.7328V22.4272C18.0926 22.266 18.8574 21.9501 19.5367 21.5142L20.4432 22.4564C20.5449 22.5624 20.7148 22.5656 20.8208 22.4639L22.2703 21.0696C22.3763 20.9679 22.3796 20.7981 22.2779 20.692L21.3714 19.7498C21.883 19.0186 22.2487 18.1802 22.4272 17.2727H23.7328C23.8799 17.2727 24 17.1537 24 17.0055Z" stroke="white" stroke-miterlimit="10"/>
<path d="M16 17C17.1046 17 18 16.1046 18 15C18 13.8954 17.1046 13 16 13C14.8954 13 14 13.8954 14 15C14 16.1046 14.8954 17 16 17Z" stroke="white" stroke-miterlimit="10"/>
<path d="M19 19C18.2695 17.7754 17.1969 17 16 17C14.8031 17 13.7305 17.7743 13 19" stroke="white" stroke-miterlimit="10"/>
</svg>
